<svg width="64" height="64" viewBox="0 0 64 64" fill="none" xmlns="http://www.w3.org/2000/svg">
<circle cx="32" cy="32" r="32" fill="white"/>
<circle cx="32" cy="32" r="28" fill="#96D9FA"/>
<mask id="mask0_635_2281" style="mask-type:alpha" maskUnits="userSpaceOnUse" x="4" y="4" width="56" height="56">
<circle cx="32" cy="32" r="28" fill="#96D9FA"/>
</mask>
<g mask="url(#mask0_635_2281)">
<ellipse cx="18.0807" cy="18.9297" rx="5.26947" ry="6.26471" transform="rotate(-7.90177 18.0807 18.9297)" fill="#A5662B"/>
<ellipse cx="47.0134" cy="20.7502" rx="5.26947" ry="6.26471" transform="rotate(33.5028 47.0134 20.7502)" fill="#A5662B"/>
<rect x="8" y="15" width="48" height="67" rx="24" fill="#A5662B"/>
<ellipse cx="26.6909" cy="35.9925" rx="8.69741" ry="7.82767" transform="rotate(-7.90177 26.6909 35.9925)" fill="#F6D0A1"/>
<path fill-rule="evenodd" clip-rule="evenodd" d="M31.2048 34.5162C31.3289 34.1557 31.4577 33.7813 31.5988 33.4338C31.7261 33.1202 32.0528 33.0619 32.3286 33.3037C32.6044 33.5454 32.7248 33.9956 32.5975 34.3092C32.4685 34.627 32.3592 34.9452 32.2421 35.2858C32.1808 35.4643 32.1173 35.6489 32.0478 35.8428C31.8523 36.3885 31.6235 36.9616 31.2995 37.5161C30.6425 38.6404 29.6275 39.6314 27.793 40.2932C24.7894 41.3767 21.711 39.5959 20.508 38.5352C20.2327 38.2925 20.1134 37.8421 20.2416 37.5293C20.3698 37.2165 20.697 37.1598 20.9724 37.4026C21.9604 38.2737 24.6704 39.8491 27.2917 38.9035C28.9728 38.297 29.8311 37.4212 30.3709 36.4975C30.6453 36.0279 30.8457 35.5317 31.0309 35.0149C31.0884 34.8547 31.1461 34.687 31.2048 34.5162Z" fill="black"/>
<path d="M27.1858 32.0068C27.084 33.3137 24.825 35.0004 22.5401 34.8225C20.2551 34.6445 18.8066 32.7064 18.9113 31.3623C19.0889 29.0821 21.0066 28.3863 23.2916 28.5643C25.8429 29.0956 27.32 30.2835 27.1858 32.0068Z" fill="#2A1210"/>
<path d="M29.7805 38.6956C30.5 43 25.931 43.4557 24.9294 41.5362C23.5528 39.5839 23.5 38.8224 26.5 38C29.5 37.1776 29.4277 36.8895 29.7805 38.6956Z" fill="#F87B51"/>
<path fill-rule="evenodd" clip-rule="evenodd" d="M31.1003 34.2267C31.2541 33.9487 31.4139 33.66 31.5829 33.39C31.7355 33.1464 32.0566 33.0726 32.3002 33.2251C32.5439 33.3776 32.6177 33.6988 32.4652 33.9424C32.3106 34.1893 32.1749 34.4347 32.0297 34.6973C31.9536 34.8349 31.8749 34.9772 31.7895 35.127C31.5492 35.5485 31.2742 35.9933 30.9089 36.4334C30.1682 37.3258 29.0943 38.1535 27.2598 38.8153C24.2562 39.8988 21.4505 38.8738 20.3884 38.2038C20.1453 38.0505 20.0726 37.7291 20.2259 37.486C20.3793 37.2429 20.7007 37.1701 20.9438 37.3235C21.8161 37.8737 24.2853 38.7818 26.9066 37.8361C28.5876 37.2297 29.4994 36.5018 30.1079 35.7687C30.4172 35.396 30.6577 35.0106 30.8853 34.6114C30.9559 34.4876 31.0274 34.3583 31.1003 34.2267Z" fill="black"/>
<ellipse cx="18.5804" cy="26.8468" rx="1.44957" ry="1.73948" transform="rotate(4.45339 18.5804 26.8468)" fill="white"/>
<ellipse cx="18.5488" cy="27.2503" rx="1.44957" ry="1.33479" transform="rotate(4.45339 18.5488 27.2503)" fill="#2A1210"/>
<path d="M38 31L36 30.2401L37.8476 29" stroke="#38231C" stroke-linecap="round" stroke-linejoin="round"/>
</g>
</svg>
