<svg width="64" height="64" viewBox="0 0 64 64" fill="none" xmlns="http://www.w3.org/2000/svg">
<circle cx="32" cy="32" r="32" fill="white"/>
<circle cx="32" cy="32" r="28" fill="#96D9FA"/>
<mask id="mask0_635_2300" style="mask-type:alpha" maskUnits="userSpaceOnUse" x="4" y="4" width="56" height="56">
<circle cx="32" cy="32" r="28" fill="#96D9FA"/>
</mask>
<g mask="url(#mask0_635_2300)">
<ellipse cx="18.0807" cy="18.9297" rx="5.26947" ry="6.26471" transform="rotate(-7.90177 18.0807 18.9297)" fill="#A5662B"/>
<ellipse cx="47.0134" cy="20.7502" rx="5.26947" ry="6.26471" transform="rotate(33.5028 47.0134 20.7502)" fill="#A5662B"/>
<rect x="8" y="15" width="48" height="67" rx="24" fill="#A5662B"/>
<ellipse cx="26.6908" cy="35.9925" rx="8.69741" ry="7.82767" transform="rotate(-16.8291 26.6908 35.9925)" fill="#F6D0A1"/>
<path d="M26.5611 31.9782C26.6634 33.2852 24.6935 35.302 22.4086 35.4808C20.1238 35.6595 18.392 33.9697 18.2869 32.6257C18.1085 30.3455 19.895 29.3605 22.1799 29.1818C24.7828 29.3107 26.4263 30.255 26.5611 31.9782Z" fill="#2A1210"/>
<ellipse cx="18.5804" cy="26.8468" rx="1.6262" ry="1.95144" transform="rotate(4.45339 18.5804 26.8468)" fill="white"/>
<ellipse cx="18.5488" cy="27.2503" rx="1.44957" ry="1.33479" transform="rotate(4.45339 18.5488 27.2503)" fill="#2A1210"/>
<path d="M31.5656 41.5702L22.2541 41.7891C20.9795 35.5611 31.8355 34.2016 31.5656 41.5702Z" fill="black"/>
<ellipse cx="37.0153" cy="31.6477" rx="1.85445" ry="2.22535" transform="rotate(19.9202 37.0153 31.6477)" fill="white"/>
<ellipse cx="36.8775" cy="32.0282" rx="1.44957" ry="1.33479" transform="rotate(19.9202 36.8775 32.0282)" fill="#2A1210"/>
</g>
<path d="M47.6013 32.0763C51.4533 32.7462 51.7032 34.9434 51.4633 36.3257C51.3548 37.0625 51.0029 37.7419 50.4634 38.2554C49.771 38.9103 46.9464 39.8502 46.374 42.8723L46.2315 43.6947C46.1615 44.0946 46.0565 44.1471 45.5841 44.0646L45.2442 44.0171C44.7742 43.9346 44.7567 43.7671 44.8167 43.4097L44.8617 43.1597C44.9612 42.5806 45.1075 42.0105 45.2991 41.455C45.8564 39.9002 46.9221 38.5791 48.3237 37.7055C48.8611 37.388 49.4911 37.1106 49.686 35.9832C49.9585 34.4085 49.0561 33.7336 47.4138 33.4586C46.4715 33.2961 45.4341 33.4311 44.6917 34.366C44.7787 34.48 44.8412 34.6109 44.8752 34.7503C44.9092 34.8896 44.9139 35.0345 44.8892 35.1759C44.8625 35.2985 44.8118 35.4146 44.7402 35.5176C44.6685 35.6207 44.5773 35.7086 44.4717 35.7764C44.3661 35.8441 44.2482 35.8904 44.1247 35.9126C44.0011 35.9348 43.8745 35.9325 43.7519 35.9058C43.6293 35.879 43.5131 35.8284 43.4101 35.7567C43.3071 35.6851 43.2191 35.5939 43.1514 35.4883C43.0836 35.3826 43.0373 35.2647 43.0151 35.1412C42.9929 35.0177 42.9952 34.891 43.022 34.7684C43.2569 33.4061 44.8767 31.6064 47.6013 32.0763Z" fill="#FFD06E"/>
<path d="M45.0918 46.0168C45.4186 46.0735 45.7095 46.2577 45.9005 46.5289C46.0916 46.8001 46.167 47.136 46.1104 47.4629C46.0537 47.7897 45.8695 48.0806 45.5983 48.2717C45.3271 48.4627 44.9912 48.5382 44.6643 48.4815C44.3413 48.4235 44.0541 48.2407 43.8647 47.9727C43.6753 47.7048 43.5989 47.373 43.652 47.0492C43.7089 46.7228 43.8917 46.4319 44.1609 46.2388C44.4302 46.0458 44.7644 45.9661 45.0918 46.0168Z" fill="#FFD06E"/>
</svg>
