<svg width="64" height="64" viewBox="0 0 64 64" fill="none" xmlns="http://www.w3.org/2000/svg">
<circle cx="32" cy="32" r="32" fill="white"/>
<circle cx="32" cy="32" r="28" fill="#96D9FA"/>
<mask id="mask0_635_2262" style="mask-type:alpha" maskUnits="userSpaceOnUse" x="4" y="4" width="56" height="56">
<circle cx="32" cy="32" r="28" fill="#96D9FA"/>
</mask>
<g mask="url(#mask0_635_2262)">
<ellipse cx="18.0807" cy="18.9297" rx="5.26947" ry="6.26471" transform="rotate(-7.90177 18.0807 18.9297)" fill="#A5662B"/>
<ellipse cx="47.0134" cy="20.7502" rx="5.26947" ry="6.26471" transform="rotate(33.5028 47.0134 20.7502)" fill="#A5662B"/>
<rect x="8" y="15" width="48" height="67" rx="24" fill="#A5662B"/>
<ellipse cx="26.2676" cy="36.4608" rx="8.69741" ry="7.82767" transform="rotate(-7.90177 26.2676 36.4608)" fill="#F6D0A1"/>
<path d="M27.1599 32.0776C27.0581 33.3846 24.7991 35.0713 22.5142 34.8933C20.2292 34.7153 18.7807 32.7772 18.8854 31.4331C19.063 29.1529 20.9807 28.4571 23.2657 28.6351C25.817 29.1664 27.2941 30.3543 27.1599 32.0776Z" fill="#2A1210"/>
<path d="M33.5605 36.1221C33.9266 39.656 30.9886 42.8865 26.9983 43.3378C23.008 43.789 19.4764 41.2901 19.1103 37.7562C18.7441 34.2223 20.3693 36.7267 25.898 35.9864C31.4267 35.2461 33.1943 32.5882 33.5605 36.1221Z" fill="#2A1210"/>
<path d="M22.7214 42.6407C24.1427 40.9907 27.9647 39.4852 31.2717 41.5051C30.1376 42.4781 28.6599 43.1494 26.9983 43.3373C25.4507 43.5123 23.9731 43.2416 22.7214 42.6407Z" fill="#E76673"/>
<path d="M34 29.0037C35.3378 28.9288 36.4498 30.0179 37 31" stroke="#38231C" stroke-miterlimit="10" stroke-linecap="round"/>
<path d="M18.0028 28.2727C18.8206 27.2113 20.3717 27.0817 21.4746 27.3074" stroke="#38231C" stroke-miterlimit="10" stroke-linecap="round"/>
</g>
</svg>
