<svg width="64" height="64" viewBox="0 0 64 64" fill="none" xmlns="http://www.w3.org/2000/svg">
<circle cx="32" cy="32" r="32" fill="white"/>
<circle cx="32" cy="32" r="28" fill="#96D9FA"/>
<mask id="mask0_635_2204" style="mask-type:alpha" maskUnits="userSpaceOnUse" x="4" y="4" width="56" height="56">
<circle cx="32" cy="32" r="28" fill="#96D9FA"/>
</mask>
<g mask="url(#mask0_635_2204)">
<ellipse cx="18.0807" cy="18.9297" rx="5.26947" ry="6.26471" transform="rotate(-7.90177 18.0807 18.9297)" fill="#A5662B"/>
<ellipse cx="47.0134" cy="20.7502" rx="5.26947" ry="6.26471" transform="rotate(33.5028 47.0134 20.7502)" fill="#A5662B"/>
<rect x="8" y="15" width="48" height="67" rx="24" fill="#A5662B"/>
<ellipse cx="26.6909" cy="35.9925" rx="8.69741" ry="7.82767" transform="rotate(-7.90177 26.6909 35.9925)" fill="#F6D0A1"/>
<path fill-rule="evenodd" clip-rule="evenodd" d="M30.6902 36.8941C30.9292 36.6848 31.1774 36.4675 31.4281 36.2709C31.6542 36.0935 31.9814 36.133 32.1588 36.3591C32.3362 36.5853 32.2967 36.9124 32.0705 37.0899C31.8413 37.2697 31.6304 37.4545 31.4047 37.6522C31.2865 37.7558 31.1642 37.863 31.033 37.9749C30.6639 38.2898 30.2542 38.6149 29.7612 38.905C28.7617 39.4931 27.4706 39.9072 25.5204 39.9072C22.3273 39.9072 20.036 37.9908 19.2643 37.0002C19.0876 36.7735 19.1283 36.4464 19.355 36.2698C19.5818 36.0932 19.9088 36.1338 20.0854 36.3605C20.7192 37.1741 22.7338 38.8663 25.5204 38.8663C27.3076 38.8663 28.4122 38.491 29.2334 38.0078C29.6508 37.7622 30.0078 37.4813 30.3574 37.183C30.4658 37.0906 30.577 36.9932 30.6902 36.8941Z" fill="black"/>
<path d="M27.1858 32.0067C27.084 33.3137 24.825 35.0004 22.5401 34.8224C20.2551 34.6445 18.8066 32.7064 18.9113 31.3623C19.0889 29.0821 21.0066 28.3863 23.2916 28.5642C25.8429 29.0956 27.32 30.2834 27.1858 32.0067Z" fill="#2A1210"/>
<ellipse cx="19.171" cy="26.7125" rx="1.44957" ry="1.73948" transform="rotate(4.45339 19.171 26.7125)" fill="white"/>
<ellipse cx="19.1394" cy="27.116" rx="1.44957" ry="1.33479" transform="rotate(4.45339 19.1394 27.116)" fill="#2A1210"/>
<ellipse cx="37.6059" cy="31.5134" rx="1.44957" ry="1.73948" transform="rotate(19.9202 37.6059 31.5134)" fill="white"/>
<ellipse cx="37.4681" cy="31.8939" rx="1.44957" ry="1.33479" transform="rotate(19.9202 37.4681 31.8939)" fill="#2A1210"/>
</g>
</svg>
