<svg width="64" height="64" viewBox="0 0 64 64" fill="none" xmlns="http://www.w3.org/2000/svg">
<circle cx="32" cy="32" r="32" fill="white"/>
<circle cx="32" cy="32" r="28" fill="#96D9FA"/>
<mask id="mask0_635_2411" style="mask-type:alpha" maskUnits="userSpaceOnUse" x="4" y="4" width="56" height="56">
<circle cx="32" cy="32" r="28" fill="#96D9FA"/>
</mask>
<g mask="url(#mask0_635_2411)">
<ellipse cx="18.0807" cy="18.9297" rx="5.26947" ry="6.26471" transform="rotate(-7.90177 18.0807 18.9297)" fill="#A5662B"/>
<ellipse cx="47.0134" cy="20.7502" rx="5.26947" ry="6.26471" transform="rotate(33.5028 47.0134 20.7502)" fill="#A5662B"/>
<rect x="8" y="15" width="48" height="67" rx="24" fill="#A5662B"/>
<path d="M38.5653 31.601C38.4907 32.5588 37.7832 33.2849 36.985 33.2227C36.1869 33.1605 35.6003 32.3337 35.6749 31.3759C35.7147 30.8652 36.4845 30.8033 37.2826 30.8655C38.0808 30.9276 38.5916 31.263 38.5653 31.601Z" fill="#2A1210"/>
<path d="M37.3277 33.1287L38.0306 33.9438C38.1697 34.1049 38.2644 34.3102 38.3028 34.5337C38.3411 34.7572 38.3215 34.9888 38.2463 35.1994C38.1711 35.41 38.0438 35.5899 37.8804 35.7165C37.717 35.8432 37.5248 35.9108 37.3283 35.9108C37.1318 35.9108 36.9396 35.8432 36.7762 35.7165C36.6128 35.5899 36.4855 35.41 36.4103 35.1994C36.3351 34.9888 36.3155 34.7572 36.3539 34.5337C36.3922 34.3102 36.4869 34.1049 36.626 33.9438L37.3277 33.1287Z" fill="#86D6FE"/>
<path d="M35.3966 35.7401C35.9909 40.0221 32.6157 44.0288 27.8579 44.6891C23.1 45.3495 18.7612 42.4135 18.1669 38.1314C17.5726 33.8494 21.0449 30.8084 25.8028 30.148C30.6691 30.148 34.8023 31.458 35.3966 35.7401Z" fill="#F6D0A1"/>
<path d="M20.1302 28.6975C20.0556 29.6553 19.3481 30.3813 18.55 30.3192C17.7518 30.257 17.1653 29.4302 17.2399 28.4724C17.2796 27.9617 18.0494 27.8998 18.8476 27.9619C19.6457 28.0241 20.1566 28.3595 20.1302 28.6975Z" fill="#2A1210"/>
<mask id="mask1_635_2411" style="mask-type:alpha" maskUnits="userSpaceOnUse" x="35" y="30" width="4" height="4">
<path d="M38.5653 31.601C38.4907 32.5588 37.7832 33.2848 36.985 33.2227C36.1869 33.1605 35.6003 32.3337 35.6749 31.3759C35.7147 30.8652 36.4845 30.8033 37.2826 30.8654C38.0808 30.9276 38.5916 31.263 38.5653 31.601Z" fill="#2A1210"/>
</mask>
<g mask="url(#mask1_635_2411)">
<path d="M37.1297 32.9299C37.8693 32.9299 38.4289 32.5285 38.4288 32.5296C38.4288 32.5307 38.428 32.4844 38.5185 32.4828C38.609 32.4812 38.6099 32.5272 38.521 32.62C38.3943 32.7522 38.5033 33.1281 37.5819 33.2221C36.6604 33.3162 36.2067 33.0559 35.8079 32.8509C35.8079 32.8509 35.6563 32.7919 35.7157 32.7604C35.7752 32.7289 35.8317 32.7419 35.8968 32.7573C36.0787 32.8002 36.1361 32.9299 37.1297 32.9299Z" fill="#86D6FE"/>
</g>
<path d="M27.2766 34.9373C27.1748 36.2442 24.9158 37.9309 22.6309 37.753C20.3459 37.575 18.8974 35.6369 19.0021 34.2928C19.1797 32.0126 21.0974 31.3168 23.3824 31.4948C25.9337 32.0261 27.4108 33.214 27.2766 34.9373Z" fill="#2A1210"/>
<path fill-rule="evenodd" clip-rule="evenodd" d="M31.4854 40.6499C31.2575 40.8906 30.8777 40.9009 30.6371 40.673C29.7964 39.8767 26.5691 38.6094 21.4218 42.3947C21.1548 42.5911 20.7792 42.5338 20.5829 42.2668C20.3865 41.9998 20.4438 41.6242 20.7108 41.4279C26.1473 37.4299 30.0574 38.4708 31.4624 39.8016C31.703 40.0295 31.7133 40.4093 31.4854 40.6499Z" fill="black"/>
<path fill-rule="evenodd" clip-rule="evenodd" d="M21.7313 23.6432C21.6408 23.7388 21.4899 23.7429 21.3943 23.6524C21.0604 23.3361 19.7787 22.8328 17.7343 24.3362C17.6283 24.4142 17.4791 24.3915 17.4011 24.2854C17.3231 24.1794 17.3459 24.0302 17.4519 23.9522C19.6111 22.3643 21.1641 22.7778 21.7221 23.3063C21.8177 23.3968 21.8218 23.5477 21.7313 23.6432Z" fill="black"/>
<path fill-rule="evenodd" clip-rule="evenodd" d="M39.0324 25.6613C38.903 25.6852 38.7786 25.5997 38.7547 25.4702C38.6711 25.018 37.9317 23.8563 35.3941 23.8673C35.2625 23.8678 35.1553 23.7616 35.1547 23.63C35.1542 23.4983 35.2604 23.3912 35.392 23.3906C38.0722 23.379 39.0838 24.6278 39.2234 25.3836C39.2474 25.513 39.1618 25.6374 39.0324 25.6613Z" fill="black"/>
</g>
</svg>
