<svg width="367" height="335" viewBox="0 0 367 335" fill="none" xmlns="http://www.w3.org/2000/svg">
<g opacity="0.4">
<path d="M36.4072 12.0402C65.8841 -1.72849 99.156 7.18198 110.722 31.9425C122.287 56.7031 116.19 100.582 86.7129 114.351C57.2361 128.119 27.8051 119.063 3.97657 81.8029C-7.58876 57.0425 6.93075 25.8089 36.4072 12.0402Z" fill="#A16D5A"/>
<path d="M250.844 29.1136C265.476 6.03231 299.613 1.44222 327.091 18.8616C354.569 36.281 364.981 69.1136 350.349 92.1949C335.717 115.276 295.463 133.773 267.985 116.353C240.507 98.934 232.285 69.2594 250.844 29.1136Z" fill="#A16D5A"/>
<path d="M319.653 97.5176C303.414 63.6947 289.601 44.7005 264.91 36.7969C311.673 -8.81266 368.326 55.8358 319.653 97.5176Z" fill="#775244"/>
<path d="M341 179.068C341 288.295 258.669 334.565 182.088 334.565C90.4176 334.565 16 260.533 16 179.068C16 84.5162 68.4161 19.9831 168.906 7.92342C270.395 1.41873 341 84.5162 341 179.068Z" fill="#A16D5A"/>
<path d="M91.5149 34.7288C59.8488 53.696 42.4903 68.9458 36.9805 93.8494C-6.99875 51.9123 47.0013 1.41235 91.5149 34.7288Z" fill="#775244"/>
<ellipse cx="173.437" cy="193.846" rx="80.4246" ry="82.6031" transform="rotate(89.4029 173.437 193.846)" fill="#FBE9CB"/>
<ellipse cx="170.673" cy="135.565" rx="32.5" ry="23" fill="#38231C"/>
<ellipse cx="126.5" cy="101.565" rx="19" ry="16.5" transform="rotate(90 126.5 101.565)" fill="white"/>
<ellipse cx="219.5" cy="101.565" rx="19" ry="16.5" transform="rotate(90 219.5 101.565)" fill="white"/>
<path d="M109.52 230.369C109.52 202.944 137.029 180.711 170.964 180.711C204.899 180.711 232.408 202.944 232.408 230.369C232.408 257.795 220.388 228.483 173.27 229.365C126.152 230.248 109.52 257.795 109.52 230.369Z" fill="#38231C"/>
<path d="M130.009 232.321C141.801 222.456 158.72 216.711 177.204 217.671C193.002 218.491 207.154 224.065 217.618 232.556C216.1 233.737 213.965 234.901 211.331 235.998C202.409 232.576 190.071 229.052 173.271 229.366C157.326 229.665 144.872 233.017 135.373 236.259C133.181 235.412 131.035 234.471 128.947 233.425C129.297 233.05 129.652 232.683 130.009 232.321Z" fill="#E76673"/>
<path d="M122.399 94.2674C127.732 90.8346 134.294 92.8588 137.011 98.7537C139.727 104.649 137.716 112.12 132.383 115.553C129.161 117.014 125.852 117.364 123.136 116.53C120.419 115.696 118.5 113.741 117.771 111.066C115.002 105.217 117.066 97.7003 122.399 94.2674Z" fill="#38231C"/>
<path d="M215.399 94.2674C220.732 90.8346 227.294 92.8588 230.011 98.7537C232.727 104.649 230.716 112.12 225.383 115.553C222.161 117.014 218.852 117.364 216.136 116.53C213.419 115.696 211.5 113.741 210.771 111.066C208.002 105.217 210.066 97.7003 215.399 94.2674Z" fill="#38231C"/>
</g>
</svg>
