<svg width="367" height="335" viewBox="0 0 367 335" fill="none" xmlns="http://www.w3.org/2000/svg">
<g opacity="0.4">
<path d="M36.4072 12.0402C65.8841 -1.72849 99.156 7.18198 110.722 31.9425C122.287 56.7031 116.19 100.582 86.7129 114.351C57.2361 128.119 27.8051 119.063 3.97657 81.8029C-7.58876 57.0425 6.93075 25.8089 36.4072 12.0402Z" fill="#A16D5A"/>
<path d="M250.844 29.1136C265.476 6.03231 299.613 1.44222 327.091 18.8616C354.569 36.281 364.981 69.1136 350.349 92.1949C335.717 115.276 295.463 133.773 267.985 116.353C240.507 98.934 232.285 69.2594 250.844 29.1136Z" fill="#A16D5A"/>
<path d="M319.653 97.5176C303.414 63.6947 289.601 44.7005 264.91 36.7969C311.674 -8.81266 368.326 55.8358 319.653 97.5176Z" fill="#775244"/>
<path d="M341 179.068C341 288.295 258.669 334.565 182.088 334.565C90.4176 334.565 16 260.533 16 179.068C16 84.5162 68.4161 19.9831 168.906 7.92342C270.395 1.41873 341 84.5162 341 179.068Z" fill="#A16D5A"/>
<path d="M91.5149 34.7288C59.8488 53.696 42.4903 68.9458 36.9805 93.8494C-6.99875 51.9123 47.0013 1.41235 91.5149 34.7288Z" fill="#775244"/>
<ellipse cx="173.437" cy="193.846" rx="80.4246" ry="82.6031" transform="rotate(89.4029 173.437 193.846)" fill="#FBE9CB"/>
<ellipse cx="170.673" cy="135.565" rx="32.5" ry="23" fill="#38231C"/>
<path d="M232.953 187.726C235 236 213.5 263.572 169.201 263.572C130 263.572 108.625 233 110.121 183.978C110.957 156.565 116.401 193.46 169.201 194.073C222 194.686 233.789 160.313 232.953 187.726Z" fill="#38231C"/>
<path d="M127.947 239.271C139.26 230.468 184.782 222.448 216.618 238.401C216.269 238.775 215.916 239.14 215.561 239.5C203.768 249.368 186.848 255.115 168.361 254.155C152.564 253.335 138.412 247.761 127.947 239.271Z" fill="#E76673"/>
<ellipse cx="219.342" cy="94.3795" rx="26.8121" ry="23.2842" transform="rotate(90 219.342 94.3795)" fill="white"/>
<path d="M213.555 84.0809C221.081 79.2366 230.34 82.093 234.174 90.4118C238.008 98.7305 235.17 109.274 227.644 114.118C223.097 116.181 218.428 116.674 214.595 115.497C210.761 114.32 208.052 111.561 207.024 107.787C203.116 99.5328 206.029 88.9252 213.555 84.0809Z" fill="#38231C"/>
<ellipse cx="127.284" cy="94.3795" rx="26.8121" ry="23.2842" transform="rotate(90 127.284 94.3795)" fill="white"/>
<path d="M121.497 84.0809C129.024 79.2366 138.283 82.093 142.117 90.4118C145.951 98.7305 143.112 109.274 135.586 114.118C131.039 116.181 126.371 116.674 122.537 115.497C118.703 114.32 115.995 111.561 114.967 107.787C111.059 99.5328 113.971 88.9252 121.497 84.0809Z" fill="#38231C"/>
<g clip-path="url(#clip0_11_1199)">
<path d="M132.288 34.8225C120.131 32.335 110.416 35.5358 103.222 40.7777C97.1654 45.1905 92.9191 51.0251 90.4161 56.0751C85.7236 52.9532 79.1288 50.0234 71.6773 49.23C62.8259 48.2876 52.8119 50.3731 43.528 58.6056C31.485 69.2847 29.5312 82.9755 33.8687 95.7064C38.1601 108.302 48.576 119.976 61.3424 127.347C73.2885 134.244 96.0004 146.438 109.794 152.554C114.091 154.459 119.113 153.263 122.019 149.51C131.888 136.763 144.228 115.389 151.186 103.338L151.23 103.261C158.601 90.495 161.785 75.1771 159.203 62.1231C156.594 48.929 148.057 38.0494 132.288 34.8225Z" fill="#C82525"/>
<path d="M93.422 60.3448C95.385 55.4538 99.5333 49.0262 105.869 44.41C112.138 39.8421 120.581 37.0143 131.387 39.2256C145.153 42.0424 152.49 51.3356 154.795 62.995C157.129 74.7955 154.268 89.0126 147.339 101.014C140.334 113.148 128.128 134.28 118.466 146.759C116.855 148.841 114.065 149.531 111.616 148.446C98.0323 142.423 75.477 130.318 63.59 123.455C51.5882 116.526 42.0025 105.643 38.1233 94.2572C34.2902 83.007 35.9971 71.2907 46.5102 61.9683C54.7628 54.6503 63.4884 52.8778 71.202 53.699C78.9969 54.5289 85.8033 58.0212 89.9492 61.2754L92.3059 63.1253L93.422 60.3448Z" fill="#D93030"/>
<path d="M122.899 38.4796C116.044 38.7258 110.391 41.1152 105.869 44.41C99.5338 49.0262 95.3854 55.4538 93.4224 60.3448L92.3064 63.1252L94.8836 72.7437C97.0085 61.0701 104.778 44.5717 122.899 38.4796Z" fill="#D73A3A"/>
<path d="M65.2549 53.6152C59.1585 54.1094 52.7012 56.4784 46.5102 61.9683C35.9971 71.2908 34.2903 83.007 38.1233 94.2572C42.0025 105.643 51.5882 116.526 63.5902 123.455C75.477 130.318 98.0323 142.423 111.616 148.446C114.065 149.531 116.855 148.841 118.466 146.759C119.226 145.777 120.002 144.742 120.789 143.662C106.063 137.621 86.1811 128.28 75.032 122.65C48.3616 109.183 32.6005 79.0513 57.8544 58.5425C60.3 56.5563 62.7759 54.9292 65.2549 53.6152Z" fill="#EE5C5C"/>
<path d="M122.994 89.3363C129.792 91.1578 137.793 83.3421 140.865 71.8794C143.936 60.4167 140.915 49.6477 134.117 47.8262C127.319 46.0047 119.318 53.8204 116.247 65.2831C113.175 76.7458 116.196 87.5148 122.994 89.3363Z" fill="#EE5C5C"/>
</g>
<g clip-path="url(#clip1_11_1199)">
<path d="M302.47 58.6055C293.186 50.3729 283.172 48.2874 274.321 49.2299C266.869 50.0233 260.275 52.953 255.582 56.075C253.079 51.025 248.833 45.1904 242.776 40.7776C235.582 35.5356 225.867 32.3348 213.71 34.8224C197.941 38.0492 189.404 48.9289 186.795 62.123C184.213 75.1769 187.397 90.4948 194.768 103.261C201.665 115.207 215.236 137.124 224.125 149.317C226.893 153.115 231.84 154.591 236.233 152.794C251.154 146.689 272.528 134.349 284.579 127.391L284.655 127.346C297.422 119.976 307.838 108.302 312.129 95.7063C316.467 82.9753 314.513 69.2846 302.47 58.6055Z" fill="#C82525"/>
<path d="M256.051 61.2753C260.196 58.0211 267.003 54.5287 274.798 53.6989C282.511 52.8776 291.237 54.6502 299.489 61.9681C310.003 71.2906 311.71 83.0069 307.877 94.2571C303.997 105.643 294.411 116.525 282.41 123.455C270.276 130.46 249.14 142.658 234.533 148.634C232.096 149.631 229.335 148.834 227.757 146.67C219.004 134.663 205.524 112.901 198.661 101.014C191.731 89.0124 188.871 74.7953 191.205 62.995C193.51 51.3355 200.847 42.0423 214.612 39.2254C225.418 37.0142 233.861 39.8419 240.131 44.4099C246.466 49.026 250.615 55.4536 252.578 60.3448L253.694 63.1253L256.051 61.2753Z" fill="#D93030"/>
<path d="M292.51 57.0776C286.451 53.8636 280.361 53.1066 274.797 53.6989C267.002 54.5288 260.196 58.0211 256.05 61.2754L253.694 63.1252L251.116 72.7437C258.793 63.6965 273.771 53.2932 292.51 57.0776Z" fill="#D73A3A"/>
<path d="M235.022 41.3637C229.496 38.7436 222.719 37.5666 214.612 39.2254C200.847 42.0424 193.51 51.3355 191.205 62.995C188.871 74.7954 191.731 89.0124 198.661 101.015C205.524 112.901 219.004 134.663 227.757 146.67C229.335 148.834 232.096 149.631 234.533 148.634C235.682 148.164 236.871 147.656 238.093 147.114C228.36 134.519 215.812 116.489 208.972 106.039C192.608 81.0407 194.025 47.0649 226.15 41.9307C229.261 41.4334 232.218 41.2622 235.022 41.3637Z" fill="#EE5C5C"/>
<path d="M267.165 101.169C272.142 106.145 282.978 103.377 291.37 94.9859C299.761 86.5946 302.529 75.7579 297.553 70.7815C292.576 65.805 281.74 68.5732 273.348 76.9645C264.957 85.3558 262.189 96.1925 267.165 101.169Z" fill="#EE5C5C"/>
</g>
</g>
<defs>
<clipPath id="clip0_11_1199">
<rect x="11.9956" y="41.2207" width="143.81" height="143.81" rx="71.9048" transform="rotate(-15 11.9956 41.2207)" fill="white"/>
</clipPath>
<clipPath id="clip1_11_1199">
<rect x="195.095" y="4" width="143.81" height="143.81" rx="71.9048" transform="rotate(15 195.095 4)" fill="white"/>
</clipPath>
</defs>
</svg>
