<svg width="367" height="335" viewBox="0 0 367 335" fill="none" xmlns="http://www.w3.org/2000/svg">
<path d="M36.4072 12.0402C65.8841 -1.72849 99.156 7.18198 110.722 31.9425C122.287 56.7031 116.19 100.582 86.7129 114.351C57.2361 128.119 27.8051 119.063 3.97657 81.8029C-7.58876 57.0425 6.93075 25.8089 36.4072 12.0402Z" fill="#A16D5A"/>
<path d="M250.844 29.1136C265.476 6.03231 299.613 1.44222 327.091 18.8616C354.569 36.281 364.981 69.1136 350.349 92.1949C335.717 115.276 295.463 133.773 267.985 116.353C240.507 98.934 232.285 69.2594 250.844 29.1136Z" fill="#A16D5A"/>
<path d="M319.653 97.5176C303.414 63.6947 289.601 44.7005 264.91 36.7969C311.674 -8.81266 368.326 55.8358 319.653 97.5176Z" fill="#775244"/>
<path d="M341 179.068C341 288.295 258.669 334.565 182.088 334.565C90.4176 334.565 16 260.533 16 179.068C16 84.5162 68.4161 19.9831 168.906 7.92342C270.395 1.41873 341 84.5162 341 179.068Z" fill="#A16D5A"/>
<path d="M91.5149 34.7288C59.8488 53.696 42.4903 68.9458 36.9805 93.8494C-6.99875 51.9123 47.0013 1.41235 91.5149 34.7288Z" fill="#775244"/>
<ellipse cx="173.437" cy="193.846" rx="80.4246" ry="82.6031" transform="rotate(89.4029 173.437 193.846)" fill="#FBE9CB"/>
<ellipse cx="170.673" cy="135.565" rx="32.5" ry="23" fill="#38231C"/>
<path d="M235.953 190.705C240 198 216.5 233.572 172.201 233.572C133 233.572 105.5 192.44 113.121 187.041C123.5 182.5 128 215 172.201 217.725C216.402 220.45 224 183 235.953 190.705Z" fill="#38231C"/>
<ellipse cx="219.342" cy="94.3795" rx="26.8121" ry="23.2842" transform="rotate(90 219.342 94.3795)" fill="white"/>
<path d="M213.555 84.0809C221.081 79.2366 230.34 82.093 234.174 90.4118C238.008 98.7305 235.17 109.274 227.644 114.118C223.097 116.181 218.428 116.674 214.595 115.497C210.761 114.32 208.052 111.561 207.024 107.787C203.116 99.5328 206.029 88.9252 213.555 84.0809Z" fill="#38231C"/>
<ellipse cx="127.284" cy="94.3795" rx="26.8121" ry="23.2842" transform="rotate(90 127.284 94.3795)" fill="white"/>
<path d="M121.497 84.0809C129.024 79.2366 138.283 82.093 142.117 90.4118C145.951 98.7305 143.112 109.274 135.586 114.118C131.039 116.181 126.371 116.674 122.537 115.497C118.703 114.32 115.995 111.561 114.967 107.787C111.059 99.5328 113.971 88.9252 121.497 84.0809Z" fill="#38231C"/>
</svg>
