<svg width="64" height="64" viewBox="0 0 64 64" fill="none" xmlns="http://www.w3.org/2000/svg">
<g clip-path="url(#clip0_21_10443)">
<circle cx="32.0726" cy="32.0726" r="31.5112" fill="#96D9FA"/>
<mask id="mask0_21_10443" style="mask-type:alpha" maskUnits="userSpaceOnUse" x="0" y="0" width="64" height="64">
<circle cx="32.0726" cy="32.0726" r="31.5112" fill="#D9D9D9"/>
</mask>
<g mask="url(#mask0_21_10443)">
<path d="M4.27339 39.3105C1.58993 47.2552 5.96675 58.0062 8.4906 62.3885C9.73108 64.0193 12.965 72.8558 17.6965 73.8217C23.6109 75.0291 44.4789 73.2544 47.4575 73.8217C52.9397 74.8659 62.86 72.7481 62.86 51.8926C62.86 34.7454 55.0327 17.974 36.6579 16.8993C18.6866 15.8482 9.84546 22.8138 4.27339 39.3105Z" fill="#9C6837"/>
<ellipse cx="23.881" cy="42.6625" rx="10.0451" ry="9.04062" transform="rotate(-7.90177 23.881 42.6625)" fill="#E6C8BC"/>
<ellipse cx="14.5298" cy="32.5586" rx="1.67419" ry="2.00903" transform="rotate(4.45339 14.5298 32.5586)" fill="white"/>
<ellipse cx="14.4935" cy="33.0246" rx="1.67419" ry="1.54163" transform="rotate(4.45339 14.4935 33.0246)" fill="#38231C"/>
<path d="M24.9116 37.6004C24.7941 39.1099 22.1851 41.058 19.546 40.8525C16.907 40.6469 15.234 38.4085 15.3549 36.8561C15.5601 34.2226 17.775 33.419 20.414 33.6245C23.3607 34.2382 25.0667 35.6101 24.9116 37.6004Z" fill="#38231C"/>
<ellipse cx="35.8215" cy="38.1036" rx="1.67419" ry="2.00903" transform="rotate(19.9202 35.8215 38.1036)" fill="white"/>
<ellipse cx="35.6622" cy="38.543" rx="1.67419" ry="1.54163" transform="rotate(19.9202 35.6622 38.543)" fill="#38231C"/>
<path d="M30.3564 42.792C31.2752 46.1364 28.9726 49.6848 25.2134 50.7176C21.4542 51.7504 17.6618 49.8766 16.743 46.5322C15.8241 43.1879 18.1377 46.3965 23.3278 44.8547C28.5179 43.313 29.4375 39.4477 30.3564 42.792Z" fill="#38231C"/>
<path d="M28.3838 46.0629C30.838 46.0629 27.501 48.9978 26.5848 49.448C25.5798 49.946 22.426 50.7777 23.481 48.8653C24.1417 47.6628 26.9513 46.0629 28.3783 46.0629H28.3838Z" fill="#FC7E8A"/>
<ellipse cx="16.1766" cy="20.7957" rx="6.08601" ry="7.23547" transform="rotate(-7.90177 16.1766 20.7957)" fill="#9C6837"/>
<ellipse cx="50.552" cy="21.7435" rx="6.08601" ry="7.23547" transform="rotate(33.5028 50.552 21.7435)" fill="#9C6837"/>
</g>
<path d="M32.0721 1.5614C48.9229 1.5614 62.5836 15.2215 62.5839 32.0721C62.5839 48.923 48.923 62.5839 32.0721 62.5839C15.2215 62.5836 1.5614 48.9229 1.5614 32.0721C1.56163 15.2216 15.2216 1.56163 32.0721 1.5614Z" stroke="white" stroke-width="2"/>
</g>
<defs>
<clipPath id="clip0_21_10443">
<rect width="64" height="64" fill="white"/>
</clipPath>
</defs>
</svg>
